# xmcd CD database file
#
# Track frame offsets:
#	183
#	13905
#	31160
#	47480
#	65665
#	79613
#	90383
#	100910
#	110533
#	127960
#	143685
#	160888
#	173153
#	183340
#	197820
#	210438
#	224960
#	238033
#	256025
#
# Disc length: 3542 seconds
#
# Revision: 2
# Processed by: cddbd v1.5.2PL0 Copyright (c) Steve Scherf et al.
# Submitted via: CDex 1.51
#
DISCID=030dd413
DTITLE=Various Artist - White Boy Blues - Volume 2
DYEAR=1900
DGENRE=Blues
TTITLE0=Savoy Brown Blues Band - I Tried
TTITLE1=Savoy Brown Blues Band - Cold Blooded Woman
TTITLE2=Savoy Brown Blues Band - Can´t Quit You Baby
TTITLE3=Savoy Brown Blues Band - True Blue
TTITLE4=Tony McPhee - Ain´t Gonna Cry No More
TTITLE5=Tony McPhee - You Don´t Love Me
TTITLE6=Tony McPhee - Someone To Love
TTITLE7=Dharma Blues Band - Roll ´em Pete
TTITLE8=Albert Lee - The Next Milestone
TTITLE9=Albert Lee - Water On My Fire
TTITLE10=Albert Lee - Crosstown Link
TTITLE11=Stones Masonry - Flap Jacks
TTITLE12=Cyril Davis and the All Stars - Not Fade Away
TTITLE13=Rod Stewart - So Much To Say
TTITLE14=John Mayall and the Bluesbreakers (feat. Eric Clapton) - On Top Of The World
TTITLE15=John Mayall and the Bluesbreakers (feat. Eric Clapton) - Hideaway
TTITLE16=John Mayall and the Bluesbreakers - The Supernatural
TTITLE17=Ten Years After - Standing At The Crossroads
TTITLE18=Ten Years After - I Want To Know
EXTD=
EXTT0=
EXTT1=
EXTT2=
EXTT3=
EXTT4=
EXTT5=
EXTT6=
EXTT7=
EXTT8=
EXTT9=
EXTT10=
EXTT11=
EXTT12=
EXTT13=
EXTT14=
EXTT15=
EXTT16=
EXTT17=
EXTT18=
PLAYORDER=
